<svg width="22" height="28" viewBox="0 0 22 28" fill="none" xmlns="http://www.w3.org/2000/svg">
<path d="M21.6039 5.78955C21.6039 5.14383 21.4029 4.56669 21.0148 4.0524C20.4443 3.29669 19.6743 2.79764 18.8329 2.40812C16.6263 1.38574 14.2686 1.05764 11.8696 0.950976C10.7696 0.902405 9.67054 0.945262 8.57387 1.05574C6.8634 1.2286 5.18625 1.54526 3.5934 2.2124C2.56959 2.64145 1.6234 3.18907 0.936728 4.1005C0.700062 4.41431 0.602919 4.79621 0.396729 5.12336V22.8191C0.469109 23.0253 0.482443 23.2443 0.580538 23.4486C1.03292 24.3929 1.82387 24.9781 2.70625 25.4572C4.1834 26.2595 5.79387 26.6367 7.43911 26.8986C8.07387 26.9995 8.71625 26.9924 9.35197 27.0686H9.79673C9.98721 26.9615 10.1777 26.9729 10.3682 27.0686H11.6386C11.7982 26.9438 11.9805 27.0267 12.152 27.0124C12.2791 27.0134 12.4058 27.0138 12.5329 27.0148C13.6963 26.9586 14.8486 26.8062 15.9824 26.5462C17.4101 26.2186 18.7986 25.7762 20.0082 24.9115C20.9334 24.25 21.6024 23.4234 21.6029 22.2162C21.6058 16.741 21.6039 11.2653 21.6043 5.79002L21.6039 5.78955ZM2.76625 4.89479C3.39244 4.33431 4.14959 4.00431 4.93197 3.73526C6.1553 3.31479 7.41959 3.08574 8.70625 2.95669C10.0677 2.82002 11.4296 2.79574 12.791 2.90907C14.6729 3.06574 16.522 3.37812 18.2353 4.23288C18.6915 4.4605 19.122 4.72907 19.4453 5.13574C19.7848 5.56288 19.7734 5.87193 19.4015 6.28907C18.8939 6.85812 18.2248 7.18098 17.5363 7.45621C16.1324 8.01669 14.661 8.28669 13.161 8.42621C12.4443 8.49288 11.7267 8.51574 11.0491 8.54336C8.78006 8.49241 6.57721 8.28764 4.47863 7.46431C3.83673 7.21241 3.21816 6.91431 2.71863 6.42002C2.15197 5.85907 2.15959 5.43764 2.76625 4.89479ZM2.29149 11.0076C2.32911 10.1895 2.30101 9.3686 2.30101 8.50288C3.29006 9.0986 4.31482 9.47955 5.38006 9.75764C6.86816 10.1457 8.38244 10.3362 9.91816 10.4062C12.1824 10.5095 14.4143 10.3167 16.6115 9.75764C17.5982 9.50669 18.5501 9.16002 19.4329 8.64669C19.6672 8.5105 19.7058 8.5705 19.7024 8.81193C19.6924 9.55145 19.6758 10.2924 19.7067 11.031C19.7282 11.5524 19.5086 11.9205 19.1272 12.2305C18.3563 12.8562 17.4505 13.2119 16.5129 13.4791C14.2543 14.1234 11.9463 14.2876 9.60721 14.1495C7.9534 14.0519 6.33197 13.8043 4.76816 13.2443C4.10911 13.0081 3.47768 12.7148 2.92149 12.2795C2.50863 11.9567 2.26578 11.5729 2.29149 11.0091V11.0076ZM19.6829 22.3705C19.6715 22.6991 19.4243 22.9391 19.1786 23.1486C18.3358 23.8662 17.3201 24.2319 16.2767 24.5115C14.1263 25.0872 11.9339 25.2486 9.71244 25.1224C8.09149 25.0305 6.49911 24.7995 4.95863 24.2772C4.21578 24.0253 3.50197 23.7105 2.88387 23.211C2.49197 22.8943 2.2653 22.5238 2.29292 21.9881C2.32816 21.2929 2.30149 20.5948 2.30149 19.8567C5.04197 21.3505 7.98149 21.7486 11.0005 21.7491C14.0201 21.7491 16.9582 21.3472 19.6924 19.8567C19.6924 20.7134 19.7115 21.5429 19.6829 22.3715V22.3705ZM19.0748 17.9329C18.3743 18.4857 17.5634 18.8176 16.7215 19.0734C14.3139 19.8057 11.8467 19.9567 9.35054 19.79C7.60292 19.6734 5.89054 19.3867 4.26435 18.7034C3.68625 18.4605 3.13911 18.1662 2.68625 17.7215C2.4253 17.4653 2.28768 17.1724 2.29578 16.7919C2.31387 15.9376 2.30149 15.0834 2.30149 14.1886C6.4534 16.7272 15.5372 16.73 19.651 14.2148C19.7372 14.2762 19.6967 14.3681 19.6972 14.4443C19.701 15.1838 19.6715 15.9248 19.7086 16.6624C19.7372 17.2262 19.4853 17.6086 19.0753 17.9319L19.0748 17.9329Z" fill="#00C8E0"/>
</svg>
