<svg width="14" height="12" viewBox="0 0 14 12" fill="none" xmlns="http://www.w3.org/2000/svg">
<path d="M0.558041 0.082202C0.69539 0.0547744 0.83301 0.00346878 0.970359 0.0031461C4.77377 -0.0010487 8.57746 -0.0010487 12.3809 0.0031461C12.5171 0.0031461 12.6534 0.0560652 12.8215 0.0909144C12.7597 0.170293 12.7276 0.214177 12.6933 0.25548C10.9383 2.35482 9.18298 4.45416 7.42739 6.55317C6.94411 7.13109 6.40091 7.12915 5.91574 6.54898C4.1669 4.45738 2.41833 2.36579 0.668406 0.275485C0.630089 0.229665 0.580168 0.198043 0.535645 0.159644C0.54293 0.13383 0.550486 0.108016 0.557772 0.082202H0.558041Z" fill="#EAEAEA"/>
<path d="M12.7963 11.3343C12.6307 11.3611 12.472 11.4091 12.313 11.4095C9.81702 11.4143 7.32071 11.4127 4.82468 11.4127C3.55832 11.4127 2.29195 11.4153 1.02559 11.4091C0.869618 11.4085 0.71392 11.3617 0.55957 11.3365C1.98028 9.63733 3.38454 7.95844 4.79473 6.2718C5.02275 6.54414 5.27235 6.84004 5.51979 7.13851C5.74376 7.40859 6.00551 7.59833 6.31798 7.67964C6.85578 7.81936 7.33717 7.67448 7.74032 7.23015C8.02527 6.91587 8.28648 6.5706 8.54741 6.25244C9.96381 7.9465 11.3651 9.62248 12.7963 11.3343Z" fill="#EAEAEA"/>
<path d="M0.0757013 10.7387C0.0535743 10.6306 0.0247012 10.5173 0.00878053 10.4012C-0.00282265 10.3157 0.000415511 10.2266 0.000415511 10.1395C0.00014567 7.18182 0.000145612 4.22416 0.000145612 1.2665C0.000145612 1.05999 0.00149492 0.854118 0.0902727 0.673096C1.49696 2.35586 2.89851 4.03281 4.29035 5.69783C2.89338 7.36865 1.48967 9.04754 0.0757013 10.7387Z" fill="#EAEAEA"/>
<path d="M13.2707 0.674029C13.2925 0.782448 13.3214 0.895708 13.3373 1.01187C13.3489 1.09738 13.3457 1.18644 13.3457 1.27356C13.3459 4.2309 13.3459 7.18824 13.3457 10.1456C13.3457 10.3518 13.3446 10.5583 13.2556 10.7393C11.8489 9.05719 10.447 7.38055 9.05493 5.71522C10.4527 4.04343 11.8564 2.36486 13.2704 0.673706L13.2707 0.674029Z" fill="#EAEAEA"/>
</svg>
