<svg width="35" height="35" viewBox="0 0 35 35" fill="none" xmlns="http://www.w3.org/2000/svg">
<path d="M22.1829 31.6833C21.4145 31.1755 20.6418 30.6744 19.8823 30.1538C19.734 30.0522 19.5945 29.8911 19.5251 29.7266C17.9945 26.0933 16.4745 22.4555 14.9523 18.8188C14.9134 18.7261 14.8707 18.6349 14.8151 18.5094C14.7201 18.5605 14.634 18.6038 14.5518 18.6527C12.2662 20.0066 9.97899 21.3572 7.7001 22.7216C7.45677 22.8672 7.27955 22.8627 7.04844 22.7138C6.63788 22.4488 6.20788 22.2138 5.78677 21.9661C5.39788 21.7372 5.39066 21.7138 5.59066 21.3177C7.52621 17.4827 9.46177 13.6483 11.3973 9.81328C11.7545 9.1055 12.1084 8.3955 12.4773 7.69328C12.5457 7.56328 12.6573 7.43217 12.7829 7.35884C15.0462 6.03939 17.3162 4.7305 19.5801 3.41217C19.7779 3.29717 19.9362 3.27884 20.1401 3.39828C20.7362 3.74828 21.3473 4.07384 21.9434 4.42439C22.0501 4.48717 22.1534 4.60939 22.1923 4.72606C22.9145 6.90217 23.624 9.08217 24.344 11.2588C24.4268 11.5088 24.3184 11.6305 24.1284 11.7538C23.0151 12.4744 22.3457 13.4894 22.1134 14.7972C21.7107 17.0661 23.184 19.3405 25.4351 19.8661C25.8951 19.9733 26.3845 19.9727 26.8612 19.9861C27.1029 19.9927 27.234 20.0644 27.3095 20.2961C28.0373 22.5283 28.7679 24.7599 29.509 26.9883C29.5973 27.2544 29.4895 27.3783 29.2857 27.5016C27.6595 28.4849 26.0362 29.4722 24.4123 30.4594C23.7423 30.8666 23.074 31.2755 22.4051 31.6838H22.1834L22.1829 31.6833ZM7.29955 22.2366C7.36399 22.1566 7.42399 22.0877 7.47732 22.0149C8.68066 20.3794 9.88344 18.7427 11.0862 17.1066C11.764 16.1844 12.4407 15.2611 13.1212 14.3405C13.3362 14.0494 13.5451 14.0766 13.6918 14.4066C13.7107 14.4488 13.7284 14.4911 13.7462 14.5338C15.6857 19.1744 17.6434 23.8066 19.5468 28.4622C19.8884 29.2972 20.3145 29.9616 21.1384 30.3483C21.3373 30.4416 21.5151 30.5811 21.749 30.7283C21.7018 30.5838 21.6762 30.5055 21.6501 30.4277C19.3857 23.5277 17.1151 16.6294 14.8684 9.72384C14.6929 9.18439 14.444 8.8055 13.9162 8.58495C13.5657 8.43828 13.2457 8.21828 12.8979 8.02328C10.6157 12.5411 8.35232 17.0216 6.08066 21.5194C6.49732 21.7649 6.89288 21.9972 7.29955 22.2372V22.2366ZM21.3701 4.70828C20.9134 4.44939 20.4923 4.22106 20.0823 3.97384C19.9268 3.87995 19.8123 3.88772 19.6573 3.97828C17.6351 5.15661 15.609 6.32773 13.584 7.50106C13.5095 7.54439 13.439 7.59384 13.3423 7.65661C13.7884 7.90773 14.2095 8.1355 14.6195 8.38106C14.7768 8.4755 14.8918 8.46161 15.0451 8.37106C16.0145 7.80161 16.9907 7.24328 17.964 6.6805C19.0884 6.02995 20.2123 5.37884 21.3695 4.70828H21.3701Z" fill="white"/>
<path d="M23.6838 15.5339C23.6855 13.9806 24.9516 12.7217 26.5094 12.7228C28.0427 12.7244 29.3061 13.9839 29.3194 15.5256C29.3327 17.0739 28.0311 18.37 26.4772 18.3539C24.94 18.3383 23.6822 17.0678 23.6838 15.5333V15.5339ZM24.1733 15.56C24.17 16.0467 24.33 16.4778 24.6038 16.8767C24.7161 17.04 24.8511 17.0972 25.0438 17.095C26.59 17.075 27.9622 16.0133 28.3488 14.5122C28.3794 14.3933 28.345 14.2161 28.2711 14.1183C27.6911 13.3533 26.6205 13.0594 25.68 13.3867C24.7833 13.6989 24.1727 14.5794 24.1733 15.5594V15.56Z" fill="white"/>
</svg>
