<svg width="21" height="24" viewBox="0 0 21 24" fill="none" xmlns="http://www.w3.org/2000/svg">
<g filter="url(#filter0_d_6_332)">
<path d="M4 13.9967V1.54816C4.00889 1.52108 4.02082 1.49461 4.0259 1.46663C4.11172 0.985053 4.31561 0.586529 4.66295 0.325511C4.8549 0.181009 5.08316 0.106172 5.29492 0C8.76506 0 12.2349 0 15.7051 0C15.7277 0.0106476 15.7495 0.0246415 15.7729 0.0310301C16.352 0.191352 16.7387 0.607216 16.932 1.27923C16.9573 1.36776 16.9774 1.45872 17 1.54846V13.997C16.9916 14.0189 16.9794 14.0399 16.9754 14.063C16.8174 14.9577 16.2129 15.5451 15.4474 15.5451C12.1367 15.5451 8.82574 15.5464 5.51506 15.5439C5.00801 15.5436 4.60607 15.2808 4.29682 14.8047C4.14066 14.5647 4.06754 14.2827 4.00025 13.9967H4ZM5.01537 7.77364C5.01537 9.72123 5.01537 11.6691 5.01537 13.6167C5.01537 14.0931 5.2157 14.3307 5.61789 14.3307C8.87551 14.3307 12.1331 14.3307 15.3905 14.3307C15.782 14.3307 15.9844 14.0892 15.9844 13.6216C15.9844 9.72123 15.9844 5.82057 15.9844 1.92021C15.9844 1.45324 15.7823 1.21413 15.3882 1.21413C12.1306 1.21413 8.87297 1.21413 5.61561 1.21413C5.21443 1.21413 5.01562 1.45142 5.01562 1.93056C5.01562 3.87815 5.01562 5.82605 5.01562 7.77364H5.01537Z" fill="#EAEAEA"/>
<path d="M10.8645 11.958H9V4.93012H10.8606V5.81657C11.1235 5.39535 11.4588 5.10091 11.8806 4.94635C12.5515 4.70093 13.2213 4.73184 13.8686 5.04283C14.4287 5.31199 14.7279 5.84123 14.8527 6.48913C14.9302 6.89192 14.9847 7.30845 14.9899 7.71967C15.007 9.10071 14.9971 10.4821 14.9974 11.8634C14.9974 11.889 14.9955 11.9146 14.9938 11.9524H13.0968C13.0968 11.899 13.0968 11.8441 13.0968 11.7891C13.0968 10.7141 13.1034 9.63933 13.0929 8.5646C13.0896 8.21395 13.0712 7.85706 13.0092 7.51453C12.8896 6.85289 12.4782 6.60248 11.9063 6.68022C11.3282 6.75922 11.0155 7.11924 10.9215 7.78712C10.8871 8.03191 10.8683 8.28233 10.8672 8.53025C10.8615 9.61029 10.8648 10.6903 10.8648 11.7704C10.8648 11.8272 10.8648 11.884 10.8648 11.958H10.8645Z" fill="#EAEAEA"/>
<path d="M8 11.958H6V5.979H8V11.958Z" fill="#EAEAEA"/>
<path d="M7.00427 2.3916C7.56238 2.39248 8.00195 2.92557 7.99999 3.59983C7.99804 4.25801 7.55165 4.78409 6.99549 4.78321C6.4381 4.78233 5.9983 4.24836 6 3.57469C6.00171 2.91622 6.44762 2.39102 7.00427 2.3916Z" fill="#EAEAEA"/>
</g>
<defs>
<filter id="filter0_d_6_332" x="0" y="0" width="21" height="23.5454" filterUnits="userSpaceOnUse" color-interpolation-filters="sRGB">
<feFlood flood-opacity="0" result="BackgroundImageFix"/>
<feColorMatrix in="SourceAlpha" type="matrix" values="0 0 0 0 0 0 0 0 0 0 0 0 0 0 0 0 0 0 127 0" result="hardAlpha"/>
<feOffset dy="4"/>
<feGaussianBlur stdDeviation="2"/>
<feComposite in2="hardAlpha" operator="out"/>
<feColorMatrix type="matrix" values="0 0 0 0 0 0 0 0 0 0 0 0 0 0 0 0 0 0 0.25 0"/>
<feBlend mode="normal" in2="BackgroundImageFix" result="effect1_dropShadow_6_332"/>
<feBlend mode="normal" in="SourceGraphic" in2="effect1_dropShadow_6_332" result="shape"/>
</filter>
</defs>
</svg>
