<svg width="30" height="30" viewBox="0 0 30 30" fill="none" xmlns="http://www.w3.org/2000/svg">
<path d="M15.3296 29.2424H14.6701C14.5487 29.1962 14.4106 29.2224 14.2939 29.1553C14.2758 29.1467 14.2587 29.1362 14.242 29.1248C14.0596 29.0057 13.8639 28.9086 13.6801 28.791C13.4901 28.6814 13.2977 28.5762 13.1125 28.4586C13.0696 28.4329 13.0244 28.4114 12.9796 28.3891C12.7677 28.2491 12.5287 28.1553 12.323 28.0048C12.1996 27.9176 12.0539 27.8705 11.9296 27.7848C11.8563 27.7324 11.7739 27.6972 11.6949 27.6548C11.4773 27.5086 11.2487 27.3814 11.0192 27.2553C10.9482 27.2176 10.8825 27.1705 10.812 27.1315C10.6396 27.0457 10.4815 26.9334 10.3063 26.8524C10.1182 26.7291 9.91631 26.6291 9.72631 26.5086C9.49726 26.3734 9.26345 26.2472 9.0344 26.1119C8.88821 26.0191 8.73917 25.9314 8.58917 25.8457C8.31298 25.6872 8.03488 25.5319 7.7625 25.3667C7.64012 25.2953 7.50964 25.2381 7.39202 25.1586C7.27774 25.0962 7.17345 25.0167 7.05298 24.9648C6.83869 24.831 6.6125 24.7176 6.39964 24.581C6.36631 24.5591 6.33155 24.5386 6.29583 24.52C6.10107 24.41 5.90583 24.3015 5.71298 24.1876C5.26917 23.9362 4.83917 23.6605 4.38345 23.43C4.26917 23.3481 4.14488 23.2819 4.02488 23.2091C3.94679 23.1653 3.87345 23.1129 3.79345 23.0719C3.5625 22.9424 3.33393 22.8095 3.10393 22.6786C3.03583 22.6305 2.96488 22.5857 2.90012 22.5334C2.66821 22.3367 2.52678 22.0853 2.45393 21.7924C2.41821 21.5962 2.38774 21.3991 2.38917 21.1986C2.37964 20.9629 2.38583 20.7276 2.38536 20.4919C2.38202 20.3019 2.38155 20.1115 2.38536 19.9215C2.3825 19.6743 2.38059 19.4272 2.38536 19.18C2.38059 18.9881 2.38155 18.7957 2.38488 18.6038C2.3825 18.3562 2.38012 18.1091 2.38536 17.8615C2.38059 17.6691 2.38155 17.4772 2.38488 17.2848C2.3825 17.0372 2.38012 16.79 2.38536 16.5424C2.38059 16.35 2.38155 16.1581 2.38488 15.9657C2.3825 15.7181 2.38012 15.471 2.38536 15.2234C2.38059 15.031 2.38155 14.8391 2.38488 14.6467C2.3825 14.3991 2.38012 14.1519 2.38536 13.9043C2.38059 13.7119 2.38155 13.52 2.38488 13.3276C2.3825 13.08 2.38012 12.8329 2.38536 12.5853C2.38059 12.3929 2.38155 12.201 2.38488 12.0086C2.3825 11.761 2.38012 11.5138 2.38536 11.2662C2.38059 11.0743 2.38155 10.8819 2.38488 10.69C2.3825 10.4429 2.38012 10.1957 2.38536 9.94859C2.38012 9.75812 2.3825 9.56764 2.3844 9.37717C2.38726 9.13859 2.37774 8.90002 2.38869 8.66145C2.38536 8.56193 2.40679 8.46526 2.42631 8.36859C2.44393 8.23288 2.47488 8.1005 2.53679 7.97717C2.65583 7.73812 2.84488 7.55669 3.03393 7.37478C3.05631 7.35288 3.08059 7.33383 3.10631 7.31574C3.30536 7.19288 3.50964 7.07859 3.71488 6.96574C3.89631 6.87907 4.05917 6.76097 4.23345 6.6624C4.29583 6.63002 4.35298 6.58955 4.41298 6.55383C4.64202 6.44621 4.85202 6.30478 5.07012 6.17764C5.15012 6.13669 5.2225 6.08193 5.3025 6.0405C5.45107 5.97669 5.58298 5.88288 5.72298 5.80383C5.95726 5.65621 6.20298 5.52717 6.43821 5.38097C6.64345 5.26478 6.84536 5.14288 7.05345 5.03097C7.2644 4.9324 7.44821 4.78717 7.65774 4.68621C7.69298 4.66764 7.72774 4.64812 7.76107 4.62574C7.96155 4.5105 8.1625 4.39574 8.36345 4.2805C8.50536 4.18288 8.6544 4.09859 8.80869 4.0224C8.89679 3.97574 8.97869 3.91717 9.06631 3.86955C9.28298 3.74145 9.49393 3.60288 9.71964 3.49098C9.78012 3.45621 9.84155 3.4224 9.90155 3.38717C10.0401 3.30336 10.1777 3.21907 10.3168 3.13669C10.782 2.88383 11.2354 2.61145 11.6915 2.34336C11.8411 2.25812 11.9892 2.1705 12.1396 2.08717C12.1992 2.04812 12.2611 2.01383 12.3239 1.98098C12.5454 1.85717 12.762 1.72621 12.9844 1.60431C13.112 1.52621 13.2454 1.45859 13.3739 1.38145C13.4682 1.32383 13.5658 1.27145 13.6558 1.20669C13.8777 1.09288 14.0901 0.962404 14.3054 0.837166C14.433 0.767642 14.5811 0.802404 14.7135 0.755737H15.2849C15.3954 0.797166 15.5163 0.773833 15.6282 0.808594C15.8706 0.910023 16.0849 1.0624 16.313 1.1905C16.422 1.26478 16.5377 1.32717 16.6554 1.38574C16.7439 1.45145 16.8425 1.50145 16.9406 1.55098C17.162 1.6924 17.3935 1.81717 17.6196 1.95002C17.6801 1.98621 17.7449 2.01431 17.8058 2.04907C17.9754 2.15717 18.1439 2.26764 18.3292 2.34955C18.5311 2.45145 18.7115 2.58859 18.9096 2.69717C19.143 2.82669 19.3768 2.95621 19.6049 3.09478C19.8277 3.22383 20.053 3.34859 20.2749 3.47955C20.4735 3.60574 20.6835 3.71193 20.882 3.83812C20.9801 3.90859 21.0958 3.94907 21.1949 4.01764C21.322 4.09669 21.4582 4.16098 21.5854 4.2405C21.8115 4.35478 22.0258 4.49097 22.2444 4.61859C22.3049 4.65478 22.3615 4.69669 22.4249 4.72764C22.5877 4.81193 22.7392 4.91621 22.9058 4.99336C23.3501 5.26383 23.7973 5.52907 24.2544 5.77669C24.3839 5.87478 24.5363 5.93431 24.6701 6.02478C24.7577 6.07288 24.8396 6.13002 24.9277 6.17669C25.1263 6.27669 25.3168 6.39145 25.5058 6.50812C25.6196 6.57097 25.7244 6.65002 25.8444 6.7024C25.9663 6.77431 26.0844 6.85288 26.2135 6.9124C26.4168 7.04145 26.6268 7.15907 26.8368 7.27717C26.8982 7.31574 26.9654 7.34478 27.0254 7.38621C27.4301 7.69002 27.6154 8.10002 27.6149 8.60002C27.6135 9.76288 27.6163 10.9257 27.6149 12.0881C27.6135 13.1557 27.613 14.2234 27.613 15.291C27.613 16.4172 27.6115 17.5434 27.6158 18.6695C27.6192 19.591 27.6096 20.5124 27.6168 21.4338C27.6177 21.5515 27.6039 21.6676 27.5692 21.78C27.4558 22.081 27.2887 22.3476 27.0496 22.5662C26.9763 22.6253 26.8939 22.6724 26.8173 22.7272C26.5663 22.8672 26.3216 23.0167 26.0754 23.1648C25.8882 23.271 25.6963 23.3681 25.5139 23.4829C25.322 23.5948 25.1296 23.7057 24.9358 23.8148C24.9187 23.8257 24.9011 23.8353 24.8835 23.8448C24.6744 23.9662 24.4692 24.0943 24.2606 24.2167C24.0768 24.2986 23.9106 24.4114 23.7401 24.5167C23.6792 24.5514 23.6144 24.5791 23.5544 24.6153C23.3287 24.7476 23.1001 24.8748 22.8782 25.0129C22.8068 25.0486 22.7401 25.0919 22.6744 25.1376C22.5311 25.211 22.3863 25.2815 22.2525 25.3719C22.0325 25.4976 21.8154 25.6281 21.5925 25.7495C21.5387 25.7757 21.4896 25.8105 21.4396 25.8438C21.2615 25.9391 21.0939 26.0524 20.9187 26.1524C20.7068 26.2538 20.5087 26.3795 20.3063 26.4976C20.0763 26.631 19.8444 26.761 19.6173 26.8995C19.4944 26.9695 19.3749 27.0457 19.252 27.1167C19.1325 27.17 19.0201 27.2362 18.9106 27.3072C18.7187 27.421 18.523 27.5276 18.332 27.6429C18.2211 27.69 18.1249 27.7634 18.0201 27.8219C17.8896 27.8991 17.7596 27.9767 17.6315 28.0576C17.1854 28.2848 16.7654 28.5576 16.3296 28.8024C16.1625 28.9029 15.9892 28.9929 15.8235 29.0962C15.7487 29.131 15.6777 29.1743 15.5958 29.1924C15.5054 29.2005 15.4149 29.2062 15.3292 29.241L15.3296 29.2424Z" fill="#8CBE24"/>
<path d="M20.2276 14.0539C20.2276 14.9848 20.2276 15.9153 20.2261 16.8462C20.2261 16.9482 20.1947 17.0267 20.0885 17.0867C19.5666 17.3815 19.0514 17.6882 18.5333 17.9905C18.5209 17.9977 18.5057 18.002 18.4952 18.011C18.1495 18.321 17.8266 18.2472 17.4633 18.0086C16.9871 17.6958 16.4752 17.4382 15.9828 17.1496C15.8485 17.071 15.7614 16.9648 15.7642 16.7796C15.7761 16.0767 15.7733 15.3734 15.7657 14.6705C15.7638 14.511 15.8204 14.4139 15.9547 14.3362C16.5742 13.9786 17.1923 13.6186 17.8066 13.252C18.0238 13.1224 18.1809 13.2653 18.3499 13.3486C18.4633 13.4048 18.5676 13.5429 18.6947 13.4829C18.8347 13.4167 18.749 13.2439 18.7466 13.1358C18.7247 12.2339 18.7504 11.3324 18.7428 10.431C18.7418 10.3124 18.7828 10.2105 18.938 10.2977C19.329 10.5172 19.7218 10.7339 20.1114 10.9558C20.229 11.0224 20.2242 11.1529 20.2247 11.261C20.2299 12.192 20.2276 13.1229 20.2276 14.0539Z" fill="#676962"/>
<path d="M9.7942 15.6581C9.7942 15.321 9.80182 14.9838 9.79087 14.6472C9.78515 14.4715 9.85182 14.3553 9.99848 14.2705C10.6042 13.9219 11.2094 13.5715 11.8142 13.221C11.9575 13.1376 12.0866 13.1334 12.2399 13.2238C12.8485 13.5829 13.4642 13.9295 14.0785 14.2781C14.2123 14.3538 14.2747 14.4562 14.2737 14.6143C14.269 15.31 14.2709 16.0062 14.2723 16.7019C14.2723 16.8786 14.2042 16.9948 14.0413 17.0857C13.4309 17.4257 12.8256 17.7753 12.2261 18.1334C12.0866 18.2167 11.9732 18.22 11.8409 18.1429C11.2118 17.7762 10.5832 17.41 9.95182 17.0476C9.81563 16.9695 9.7942 16.8491 9.7942 16.7129C9.7942 16.3615 9.7942 16.0095 9.7942 15.6581Z" fill="white"/>
<path d="M21.7032 15.6661C21.7032 15.3147 21.707 14.9633 21.7013 14.6119C21.6994 14.4833 21.7318 14.3985 21.8532 14.329C22.4999 13.9614 23.1418 13.5852 23.7842 13.209C23.897 13.1428 23.9975 13.1457 24.1099 13.2109C24.7289 13.569 25.3504 13.9238 25.9704 14.2799C26.0937 14.3504 26.1308 14.4552 26.1489 14.5995C26.2028 15.0328 26.1075 15.3485 25.6547 15.5233C25.3894 15.6257 25.1599 15.818 24.9118 15.9657C24.7704 16.0499 24.6685 16.0076 24.6966 15.8395C24.7699 15.398 24.5942 15.1447 24.1842 14.9719C23.9904 14.8899 23.8837 14.908 23.697 14.9785C23.2532 15.1461 23.1423 15.4395 23.1899 15.8733C23.2104 16.0585 23.2532 16.1699 23.4251 16.2638C24.0208 16.5895 24.6056 16.9352 25.1937 17.2742C25.3494 17.3642 25.3542 17.4509 25.2047 17.5357C24.8404 17.7428 24.4728 17.9438 24.108 18.1509C23.9818 18.2223 23.8642 18.2233 23.7385 18.1509C23.1189 17.7938 22.4975 17.439 21.8775 17.0828C21.7551 17.0128 21.6966 16.9142 21.7004 16.7633C21.7099 16.3976 21.7032 16.0314 21.7032 15.6652V15.6661Z" fill="#676962"/>
<path d="M8.29664 16.0547C8.29664 16.5381 8.29759 17.0214 8.29616 17.5047C8.29568 17.7152 8.24997 17.749 8.07092 17.6528C7.70806 17.4576 7.34664 17.259 6.99378 17.0466C6.87997 16.9781 6.81092 16.8762 6.81711 16.7057C6.83378 16.2609 6.80664 15.8152 6.80521 15.3695C6.80521 15.2409 6.75521 15.1624 6.63997 15.1176C6.61997 15.11 6.59806 15.1009 6.58283 15.0866C6.20759 14.7357 5.86187 14.8462 5.49283 15.119C5.31235 15.2528 5.31616 15.409 5.31378 15.5824C5.30854 15.9866 5.30664 16.3904 5.30949 16.7947C5.31045 16.9038 5.26664 16.9695 5.17473 17.0224C4.80473 17.2338 4.43902 17.4538 4.06711 17.6619C3.94521 17.73 3.84806 17.7528 3.84949 17.5338C3.85425 16.5395 3.83949 15.5447 3.83521 14.5504C3.83473 14.4181 3.91045 14.32 4.0233 14.2557C4.65092 13.8976 5.28092 13.5433 5.90711 13.1828C6.01759 13.1195 6.10997 13.1014 6.22759 13.1704C6.85616 13.5409 7.48616 13.9095 8.12187 14.2681C8.26664 14.3495 8.30092 14.4514 8.29902 14.6043C8.2914 15.0876 8.29616 15.5709 8.29616 16.0543L8.29664 16.0547Z" fill="#676962"/>
<path d="M24.3401 15.6871C24.3235 15.7619 24.3887 15.8814 24.2925 15.9371C24.1701 16.0085 24.0635 16.1314 23.9163 16.1357C23.6749 16.1428 23.4854 15.8495 23.5054 15.5285C23.5125 15.4114 23.8196 15.1719 23.9482 15.1823C24.1477 15.199 24.3535 15.4557 24.3396 15.6866L24.3401 15.6871Z" fill="#676962"/>
<path d="M17.2408 15.6558C17.1923 15.4129 17.2842 15.2091 17.5727 15.102C17.6785 15.0624 17.7661 14.9777 17.8651 14.9186C17.9423 14.8724 18.0237 14.8372 18.097 14.9301C18.1056 14.941 18.1199 14.9491 18.1332 14.9529C18.6718 15.1096 18.7985 15.491 18.7185 15.9991C18.7008 16.112 18.6708 16.1839 18.5685 16.2382C18.4032 16.3262 18.2446 16.4272 18.0856 16.5258C18.0165 16.5686 17.9551 16.5643 17.8875 16.5234C17.7023 16.412 17.5189 16.2962 17.327 16.1967C17.2408 16.152 17.2546 16.0762 17.2451 16.0153C17.2289 15.9124 17.2408 15.8058 17.2408 15.6558Z" fill="#8CBE24"/>
<path d="M12.7891 15.7124C12.7496 15.8719 12.8591 16.0633 12.7258 16.1619C12.512 16.32 12.262 16.5333 12.0282 16.5329C11.7944 16.5319 11.5253 16.3338 11.3401 16.1524C11.1939 16.0091 11.2996 15.7491 11.2896 15.5414C11.2853 15.4529 11.2368 15.3348 11.3315 15.2748C11.5577 15.131 11.7934 14.9005 12.0268 14.8991C12.2591 14.8976 12.5068 15.1138 12.721 15.2705C12.8677 15.3781 12.7353 15.5748 12.7891 15.7129V15.7124Z" fill="#8CBE24"/>
</svg>
